<svg width="56" height="72" viewBox="0 0 56 72" fill="none" xmlns="http://www.w3.org/2000/svg">
<g filter="url(#filter0_d_857_7368)">
<path d="M4 24C4 10.7452 14.7452 0 28 0V0C41.2548 0 52 10.7452 52 24V40C52 53.2548 41.2548 64 28 64V64C14.7452 64 4 53.2548 4 40V24Z" fill="white"/>
<circle cx="28" cy="19" r="4" fill="#D8D8D8"/>
<line x1="19" y1="39.1924" x2="28.1924" y2="30" stroke="#D8D8D8" stroke-width="3" stroke-linecap="round"/>
<line x1="28.1213" y1="30" x2="37.3137" y2="39.1924" stroke="#D8D8D8" stroke-width="3" stroke-linecap="round"/>
<path d="M49 24V40H55V24H49ZM7 40V24H1V40H7ZM28 61C16.402 61 7 51.598 7 40H1C1 54.9117 13.0883 67 28 67V61ZM49 40C49 51.598 39.598 61 28 61V67C42.9117 67 55 54.9117 55 40H49ZM28 3C39.598 3 49 12.402 49 24H55C55 9.08831 42.9117 -3 28 -3V3ZM28 -3C13.0883 -3 1 9.08831 1 24H7C7 12.402 16.402 3 28 3V-3Z" fill="#D8D8D8"/>
</g>
<defs>
<filter id="filter0_d_857_7368" x="0" y="0" width="56" height="72" filterUnits="userSpaceOnUse" color-interpolation-filters="sRGB">
<feFlood flood-opacity="0" result="BackgroundImageFix"/>
<feColorMatrix in="SourceAlpha" type="matrix" values="0 0 0 0 0 0 0 0 0 0 0 0 0 0 0 0 0 0 127 0" result="hardAlpha"/>
<feOffset dy="4"/>
<feGaussianBlur stdDeviation="2"/>
<feComposite in2="hardAlpha" operator="out"/>
<feColorMatrix type="matrix" values="0 0 0 0 0.501961 0 0 0 0 0.501961 0 0 0 0 0.501961 0 0 0 0.25 0"/>
<feBlend mode="normal" in2="BackgroundImageFix" result="effect1_dropShadow_857_7368"/>
<feBlend mode="normal" in="SourceGraphic" in2="effect1_dropShadow_857_7368" result="shape"/>
</filter>
</defs>
</svg>
